<?xml version="1.0" encoding="UTF-8" standalone="no"?>
<!DOCTYPE svg PUBLIC "-//W3C//DTD SVG 1.1//EN" "http://www.w3.org/Graphics/SVG/1.1/DTD/svg11.dtd">
<svg xmlns="http://www.w3.org/2000/svg" xmlns:xlink="http://www.w3.org/1999/xlink" version="1.1" width="612pt" height="792pt" viewBox="0 0 612 792">
<g enable-background="new">
<text xml:space="preserve" transform="matrix(1 0 -0 1 0 792)" font-size="11.9552" font-family="CMR12"><tspan y="-708.045" x="72 78.50363 83.11834 93.22049 97.77542 104.27905 114.36925 118.983959 127.11349 132.97154 144.3768 148.93173 154.13225 158.74695 168.19156 174.0496 177.30142 183.15947 189.6631 195.52115 200.13585 203.38767 209.8913 219.99344 224.60814 230.46619 240.22164 250.31183 256.1699 260.72483 267.22846 272.42897 281.88554 287.08604 290.33784 296.1959 300.8106 305.42533 308.67713 313.87763 319.7357 327.88914 334.71556 340.5736 345.18833 349.74327 353.64067 360.1443 364.69923 370.88008 376.08058 381.28108 385.89579 390.5105 393.7623 400.26594 411.01368 415.5686 426.3283 432.83195 436.08375 440.96147 452.03199 457.89006 464.39369 473.85026 478.40519 484.9088 495.01097 499.62568 506.1293 511.98738 516.5423 526.04666 529.6212 535.47927">usetheswaptestalongsidesomeotherclassicalpost-processingtopickouttheshotsfor</tspan><tspan y="-689.988" x="72 80.452327 86.955959 90.20777 95.085498 105.73758 111.59563 114.84744 122.24771 126.80264 132.98348 139.4871 144.68762 154.70609 159.9066 166.08744 171.28795 174.53977 179.74028 188.50344 198.25888 203.4594 209.31745 213.93215 220.43578 224.9907 230.19123 240.8433 246.04383 251.24434 255.79927 261.65733 269.1293 274.98738 281.491 292.1431 301.89854 307.09904 312.9571 317.5718 324.07545 328.63038 337.97935 342.53428 349.0379 358.38688 368.1423 373.3428 379.20088 389.85298 395.38825 401.2463 406.4468 411.00175 414.25355 420.1116 426.61524 435.82075 440.04093 446.54457 451.74507 457.60313 460.85493 464.10673 474.43605 484.44258 488.9975 494.198 498.8127 507.52806 513.3861 521.10916 525.66409 532.16769 535.4195">whichallrodeocyclesmeasuredzero,andmeasurethemeanoverlap.Ideallyatestofthis</tspan><tspan y="-671.93" x="72 78.50363 83.05856 89.2394 94.43992 99.640438 106.144069 112.6477 117.20263 126.455959 134.5855 140.44355 146.94718 150.19899 160.75543 165.37014 170.57065 176.4287 180.98363 185.8494 196.40584 206.3167 210.9314 217.43503 223.29308 228.49359 237.74692 243.60497 251.23238 260.0075 265.86558 275.621 278.8728 282.1246 286.67955 292.5376 299.04124 302.29304 308.1511 314.65473 319.26945 326.60993 332.468 341.13554 344.38734 353.05488 359.5585 365.41658 371.9202 381.17353 384.42533 394.98179 399.5367 406.04035 415.29368 419.9084 425.1089 430.3094 436.16746 442.67109 453.22755 457.78248 463.96333 470.46696 475.66746 485.57835 492.08198 497.94004 504.76646 509.96696 518.57467 521.8265 527.6845 533.54257 536.7944">procedurewouldsearchaspaceofHamiltonians,asisdoneinthesecondrodeopaper[11],</tspan><tspan y="-653.873" x="72 78.50363 85.00726 93.45959 99.96322 109.73061 119.48605 125.3441 129.89904 138.99695 143.55188 150.05551 155.91356 166.31459 172.17264 178.67627 187.78614 192.98665 199.16748 205.01358 214.76903 221.27266 224.52448 233.63434 242.40946 248.2675 258.02296 261.27476 264.52656 269.08149 274.93955 281.44319 284.69499 290.55305 300.95408 306.15458 312.01264 318.51628 321.76808 332.1691 338.9955 348.10539 353.30589 359.48674 365.99037 369.24217 375.10023 379.65516 384.85566 395.25669 401.11476 409.56709 414.122 420.62565 429.7355 434.936 441.43965 445.99458 450.5495 455.75 461.91889 470.38319 474.9381 478.1899 487.94535 493.14585">butnomorethanoneexampleHamiltoniancouldbeexploredatthecurrenttime.</tspan></text>
<text xml:space="preserve" transform="matrix(1 0 -0 1 0 792)" font-size="11.9552" font-family="CMSY10" font-style="italic"><tspan y="-629.344" x="79.536">|</tspan></text>
<text xml:space="preserve" transform="matrix(1 0 -0 1 0 792)" font-size="11.9552" font-family="CMR12"><tspan y="-629.344" x="82.857">0</tspan></text>
<text xml:space="preserve" transform="matrix(1 0 -0 1 0 792)" font-size="11.9552" font-family="CMSY10" font-style="italic"><tspan y="-629.344" x="88.71">&#x27e9;</tspan></text>
<path transform="matrix(1,0,0,-1,99.212,159.66699)" stroke-width=".478" stroke-linecap="round" stroke-linejoin="round" fill="none" stroke="#000000" d="M 11.706 0 L 0 0 "/>
<text xml:space="preserve" transform="matrix(1 0 -0 1 0 792)" font-size="11.9552" font-family="CMMI12" font-style="italic"><tspan y="-617.053" x="128.477 137.47928 143.11019 149.19538 154.62303">Rodeo</tspan></text>
<text xml:space="preserve" transform="matrix(1 0 -0 1 0 792)" font-size="11.9552" font-family="CMR12"><tspan y="-617.053" x="162.241">(</tspan></text>
<text xml:space="preserve" transform="matrix(1 0 -0 1 0 792)" font-size="11.9552" font-family="CMSY10" font-style="italic"><tspan y="-617.053" x="166.79399">E</tspan></text>
<text xml:space="preserve" transform="matrix(1 0 -0 1 0 792)" font-size="11.9552" font-family="CMMI12" font-style="italic"><tspan y="-617.053" x="174.17299 179.42133">,t</tspan></text>
<text xml:space="preserve" transform="matrix(1 0 -0 1 0 792)" font-size="7.9701" font-family="CMR8"><tspan y="-615.25997" x="183.64398">1</tspan></text>
<text xml:space="preserve" transform="matrix(1 0 -0 1 0 792)" font-size="11.9552" font-family="CMR12"><tspan y="-617.053" x="188.37598">)</tspan></text>
<path transform="matrix(1,0,0,-1,99.212,159.66699)" stroke-width=".478" stroke-linecap="round" stroke-linejoin="round" fill="none" stroke="#000000" d="M 99.569 5.268 L 23.412 5.268 "/>
<path transform="matrix(1,0,0,-1,99.212,159.66699)" stroke-width=".478" stroke-linecap="round" stroke-linejoin="round" fill="none" stroke="#000000" d="M 23.412 5.268 L 23.412 -29.85 "/>
<path transform="matrix(1,0,0,-1,99.212,159.66699)" stroke-width=".478" stroke-linecap="round" stroke-linejoin="round" fill="none" stroke="#000000" d="M 23.412 -29.85 L 99.569 -29.85 "/>
<path transform="matrix(1,0,0,-1,99.212,159.66699)" stroke-width=".478" stroke-linecap="round" stroke-linejoin="round" fill="none" stroke="#000000" d="M 99.569 -29.85 L 99.569 5.268 "/>
<path transform="matrix(1,0,0,-1,99.212,159.66699)" stroke-width=".478" stroke-linecap="round" stroke-linejoin="round" fill="none" stroke="#000000" d="M 23.412 0 L 11.706 0 "/>
<text xml:space="preserve" transform="matrix(1 0 -0 1 0 792)" font-size="11.9552" font-family="CMMI12" font-style="italic"><tspan y="-617.053" x="216.341 225.34328 230.97418 237.05937 242.48703">Rodeo</tspan></text>
<text xml:space="preserve" transform="matrix(1 0 -0 1 0 792)" font-size="11.9552" font-family="CMR12"><tspan y="-617.053" x="250.10501">(</tspan></text>
<text xml:space="preserve" transform="matrix(1 0 -0 1 0 792)" font-size="11.9552" font-family="CMSY10" font-style="italic"><tspan y="-617.053" x="254.65702">E</tspan></text>
<text xml:space="preserve" transform="matrix(1 0 -0 1 0 792)" font-size="11.9552" font-family="CMMI12" font-style="italic"><tspan y="-617.053" x="262.036 267.28434">,t</tspan></text>
<text xml:space="preserve" transform="matrix(1 0 -0 1 0 792)" font-size="7.9701" font-family="CMR8"><tspan y="-615.25997" x="271.50703">2</tspan></text>
<text xml:space="preserve" transform="matrix(1 0 -0 1 0 792)" font-size="11.9552" font-family="CMR12"><tspan y="-617.053" x="276.24003">)</tspan></text>
<path transform="matrix(1,0,0,-1,99.212,159.66699)" stroke-width=".478" stroke-linecap="round" stroke-linejoin="round" fill="none" stroke="#000000" d="M 187.432 5.268 L 111.275 5.268 "/>
<path transform="matrix(1,0,0,-1,99.212,159.66699)" stroke-width=".478" stroke-linecap="round" stroke-linejoin="round" fill="none" stroke="#000000" d="M 111.275 5.268 L 111.275 -29.85 "/>
<path transform="matrix(1,0,0,-1,99.212,159.66699)" stroke-width=".478" stroke-linecap="round" stroke-linejoin="round" fill="none" stroke="#000000" d="M 111.275 -29.85 L 187.432 -29.85 "/>
<path transform="matrix(1,0,0,-1,99.212,159.66699)" stroke-width=".478" stroke-linecap="round" stroke-linejoin="round" fill="none" stroke="#000000" d="M 187.432 -29.85 L 187.432 5.268 "/>
<path transform="matrix(1,0,0,-1,99.212,159.66699)" stroke-width=".478" stroke-linecap="round" stroke-linejoin="round" fill="none" stroke="#000000" d="M 111.275 0 L 99.569 0 "/>
<path transform="matrix(1,0,0,-1,99.212,159.66699)" stroke-width=".478" stroke-linecap="round" stroke-linejoin="round" fill="none" stroke="#000000" d="M 199.138 0 L 187.432 0 "/>
<text xml:space="preserve" transform="matrix(1 0 -0 1 0 792)" font-size="11.9552" font-family="CMMI12" font-style="italic"><tspan y="-630.839" x="303.187 308.43534 313.6717">...</tspan><tspan y="-617.053" x="339.32203 348.32429 353.95518 360.04039 365.46806">Rodeo</tspan></text>
<text xml:space="preserve" transform="matrix(1 0 -0 1 0 792)" font-size="11.9552" font-family="CMR12"><tspan y="-617.053" x="373.08604">(</tspan></text>
<text xml:space="preserve" transform="matrix(1 0 -0 1 0 792)" font-size="11.9552" font-family="CMSY10" font-style="italic"><tspan y="-617.053" x="377.63804">E</tspan></text>
<text xml:space="preserve" transform="matrix(1 0 -0 1 0 792)" font-size="11.9552" font-family="CMMI12" font-style="italic"><tspan y="-617.053" x="385.01704 390.26536">,t</tspan></text>
<text xml:space="preserve" transform="matrix(1 0 -0 1 0 792)" font-size="7.9701" font-family="CMMI8" font-style="italic"><tspan y="-615.25997" x="394.48805">n</tspan></text>
<text xml:space="preserve" transform="matrix(1 0 -0 1 0 792)" font-size="11.9552" font-family="CMR12"><tspan y="-617.053" x="400.12504">)</tspan></text>
<path transform="matrix(1,0,0,-1,99.212,159.66699)" stroke-width=".478" stroke-linecap="round" stroke-linejoin="round" fill="none" stroke="#000000" d="M 311.318 5.268 L 234.256 5.268 "/>
<path transform="matrix(1,0,0,-1,99.212,159.66699)" stroke-width=".478" stroke-linecap="round" stroke-linejoin="round" fill="none" stroke="#000000" d="M 234.256 5.268 L 234.256 -29.85 "/>
<path transform="matrix(1,0,0,-1,99.212,159.66699)" stroke-width=".478" stroke-linecap="round" stroke-linejoin="round" fill="none" stroke="#000000" d="M 234.256 -29.85 L 311.318 -29.85 "/>
<path transform="matrix(1,0,0,-1,99.212,159.66699)" stroke-width=".478" stroke-linecap="round" stroke-linejoin="round" fill="none" stroke="#000000" d="M 311.318 -29.85 L 311.318 5.268 "/>
<path transform="matrix(1,0,0,-1,99.212,159.66699)" stroke-width=".478" stroke-linecap="round" stroke-linejoin="round" fill="none" stroke="#000000" d="M 234.256 0 L 222.55 0 "/>
<path transform="matrix(1,0,0,-1,99.212,159.66699)" stroke-width=".478" stroke-linecap="round" stroke-linejoin="round" fill="none" stroke="#000000" d="M 331.847 0 L 311.318 0 "/>
<path transform="matrix(1,0,0,-1,99.212,159.66699)" stroke-width=".478" stroke-linecap="round" stroke-linejoin="round" fill="none" stroke="#000000" d="M 353.862 0 L 331.847 0 "/>
<path transform="matrix(1,0,0,-1,99.212,159.66699)" stroke-width=".478" stroke-linecap="round" stroke-linejoin="round" fill="none" stroke="#000000" d="M 375.877 0 L 353.862 0 "/>
<path transform="matrix(1,0,0,-1,99.212,159.66699)" stroke-width=".478" stroke-linecap="round" stroke-linejoin="round" fill="none" stroke="#000000" d="M 406.942 0 L 375.877 0 "/>
<text xml:space="preserve" transform="matrix(1 0 -0 1 0 792)" font-size="11.9552" font-family="CMSY10" font-style="italic"><tspan y="-604.762" x="77.35">|</tspan></text>
<text xml:space="preserve" transform="matrix(1 0 -0 1 0 792)" font-size="11.9552" font-family="CMMI12" font-style="italic"><tspan y="-604.762" x="80.671">&#x03c8;</tspan></text>
<text xml:space="preserve" transform="matrix(1 0 -0 1 0 792)" font-size="11.9552" font-family="CMSY10" font-style="italic"><tspan y="-604.762" x="88.71">&#x27e9;</tspan></text>
<text xml:space="preserve" transform="matrix(1 0 -0 1 0 792)" font-size="11.9552" font-family="CMMI12" font-style="italic"><tspan y="-604.762" x="103.998">/</tspan></text>
<text xml:space="preserve" transform="matrix(1 0 -0 1 0 792)" font-size="7.9701" font-family="CMMI8" font-style="italic"><tspan y="-609.10006" x="109.851">m</tspan></text>
<path transform="matrix(1,0,0,-1,99.212,159.66699)" stroke-width=".478" stroke-linecap="round" stroke-linejoin="round" fill="none" stroke="#000000" d="M 11.706 -24.582 L 0 -24.582 "/>
<path transform="matrix(1,0,0,-1,99.212,159.66699)" stroke-width=".478" stroke-linecap="round" stroke-linejoin="round" fill="none" stroke="#000000" d="M 23.412 -24.582 L 11.706 -24.582 "/>
<path transform="matrix(1,0,0,-1,99.212,159.66699)" stroke-width=".478" stroke-linecap="round" stroke-linejoin="round" fill="none" stroke="#000000" d="M 111.275 -24.582 L 99.569 -24.582 "/>
<path transform="matrix(1,0,0,-1,99.212,159.66699)" stroke-width=".478" stroke-linecap="round" stroke-linejoin="round" fill="none" stroke="#000000" d="M 199.138 -24.582 L 187.432 -24.582 "/>
<text xml:space="preserve" transform="matrix(1 0 -0 1 0 792)" font-size="11.9552" font-family="CMMI12" font-style="italic"><tspan y="-606.256" x="303.187 308.43534 313.6717">...</tspan></text>
<path transform="matrix(1,0,0,-1,99.212,159.66699)" stroke-width=".478" stroke-linecap="round" stroke-linejoin="round" fill="none" stroke="#000000" d="M 234.256 -24.582 L 222.55 -24.582 "/>
<path transform="matrix(1,0,0,-1,99.212,159.66699)" stroke-width=".478" stroke-linecap="round" stroke-linejoin="round" fill="none" stroke="#000000" d="M 331.847 -24.582 L 311.318 -24.582 "/>
<text xml:space="preserve" transform="matrix(1 0 -0 1 0 792)" font-size="11.9552" font-family="CMSY10" font-style="italic"><tspan y="-604.762" x="448.425">&#x00d7;</tspan></text>
<path transform="matrix(1,0,0,-1,99.212,159.66699)" stroke-width=".478" stroke-linecap="round" stroke-linejoin="round" fill="none" stroke="#000000" d="M 353.862 -24.582 L 331.847 -24.582 "/>
<path transform="matrix(1,0,0,-1,99.212,159.66699)" stroke-width=".478" stroke-linecap="round" stroke-linejoin="round" fill="none" stroke="#000000" d="M 375.877 -24.582 L 353.862 -24.582 "/>
<path transform="matrix(1,0,0,-1,99.212,159.66699)" stroke-width=".478" stroke-linecap="round" stroke-linejoin="round" fill="none" stroke="#000000" d="M 406.942 -24.582 L 375.877 -24.582 "/>
<text xml:space="preserve" transform="matrix(1 0 -0 1 0 792)" font-size="11.9552" font-family="CMSY10" font-style="italic"><tspan y="-585.624" x="72.342">|</tspan></text>
<text xml:space="preserve" transform="matrix(1 0 -0 1 0 792)" font-size="11.9552" font-family="CMMI12" font-style="italic"><tspan y="-585.624" x="75.663">E</tspan></text>
<text xml:space="preserve" transform="matrix(1 0 -0 1 0 792)" font-size="7.9701" font-family="CMMI8" font-style="italic"><tspan y="-583.831" x="84.328">j</tspan></text>
<text xml:space="preserve" transform="matrix(1 0 -0 1 0 792)" font-size="11.9552" font-family="CMSY10" font-style="italic"><tspan y="-585.624" x="88.71001">&#x27e9;</tspan></text>
<text xml:space="preserve" transform="matrix(1 0 -0 1 0 792)" font-size="11.9552" font-family="CMMI12" font-style="italic"><tspan y="-585.447" x="103.99801">/</tspan></text>
<text xml:space="preserve" transform="matrix(1 0 -0 1 0 792)" font-size="7.9701" font-family="CMMI8" font-style="italic"><tspan y="-589.78506" x="109.851009">m</tspan></text>
<path transform="matrix(1,0,0,-1,99.212,159.66699)" stroke-width=".478" stroke-linecap="round" stroke-linejoin="round" fill="none" stroke="#000000" d="M 11.706 -43.897 L 0 -43.897 "/>
<path transform="matrix(1,0,0,-1,99.212,159.66699)" stroke-width=".478" stroke-linecap="round" stroke-linejoin="round" fill="none" stroke="#000000" d="M 61.491 -43.897 L 11.706 -43.897 "/>
<path transform="matrix(1,0,0,-1,99.212,159.66699)" stroke-width=".478" stroke-linecap="round" stroke-linejoin="round" fill="none" stroke="#000000" d="M 149.354 -43.897 L 61.491 -43.897 "/>
<path transform="matrix(1,0,0,-1,99.212,159.66699)" stroke-width=".478" stroke-linecap="round" stroke-linejoin="round" fill="none" stroke="#000000" d="M 199.138 -43.897 L 149.354 -43.897 "/>
<text xml:space="preserve" transform="matrix(1 0 -0 1 0 792)" font-size="11.9552" font-family="CMMI12" font-style="italic"><tspan y="-586.941" x="303.187 308.43534 313.6717">...</tspan></text>
<path transform="matrix(1,0,0,-1,99.212,159.66699)" stroke-width=".478" stroke-linecap="round" stroke-linejoin="round" fill="none" stroke="#000000" d="M 272.787 -43.897 L 222.55 -43.897 "/>
<path transform="matrix(1,0,0,-1,99.212,159.66699)" stroke-width=".478" stroke-linecap="round" stroke-linejoin="round" fill="none" stroke="#000000" d="M 331.847 -43.897 L 272.787 -43.897 "/>
<text xml:space="preserve" transform="matrix(1 0 -0 1 0 792)" font-size="11.9552" font-family="CMSY10" font-style="italic"><tspan y="-585.447" x="448.425">&#x00d7;</tspan></text>
<path transform="matrix(1,0,0,-1,99.212,159.66699)" stroke-width=".478" stroke-linecap="round" stroke-linejoin="round" fill="none" stroke="#000000" d="M 353.862 -43.897 L 331.847 -43.897 "/>
<path transform="matrix(1,0,0,-1,99.212,159.66699)" stroke-width=".478" stroke-linecap="round" stroke-linejoin="round" fill="none" stroke="#000000" d="M 353.862 -43.897 L 353.862 -24.582 "/>
<path transform="matrix(1,0,0,-1,99.212,159.66699)" stroke-width=".478" stroke-linecap="round" stroke-linejoin="round" fill="none" stroke="#000000" d="M 375.877 -43.897 L 353.862 -43.897 "/>
<path transform="matrix(1,0,0,-1,99.212,159.66699)" stroke-width=".478" stroke-linecap="round" stroke-linejoin="round" fill="none" stroke="#000000" d="M 406.942 -43.897 L 375.877 -43.897 "/>
<text xml:space="preserve" transform="matrix(1 0 -0 1 0 792)" font-size="11.9552" font-family="CMSY10" font-style="italic"><tspan y="-563.206" x="79.536">|</tspan></text>
<text xml:space="preserve" transform="matrix(1 0 -0 1 0 792)" font-size="11.9552" font-family="CMR12"><tspan y="-563.206" x="82.857">0</tspan></text>
<text xml:space="preserve" transform="matrix(1 0 -0 1 0 792)" font-size="11.9552" font-family="CMSY10" font-style="italic"><tspan y="-563.206" x="88.71">&#x27e9;</tspan></text>
<path transform="matrix(1,0,0,-1,99.212,159.66699)" stroke-width=".478" stroke-linecap="round" stroke-linejoin="round" fill="none" stroke="#000000" d="M 11.706 -66.138 L 0 -66.138 "/>
<path transform="matrix(1,0,0,-1,99.212,159.66699)" stroke-width=".478" stroke-linecap="round" stroke-linejoin="round" fill="none" stroke="#000000" d="M 61.491 -66.138 L 11.706 -66.138 "/>
<path transform="matrix(1,0,0,-1,99.212,159.66699)" stroke-width=".478" stroke-linecap="round" stroke-linejoin="round" fill="none" stroke="#000000" d="M 149.354 -66.138 L 61.491 -66.138 "/>
<path transform="matrix(1,0,0,-1,99.212,159.66699)" stroke-width=".478" stroke-linecap="round" stroke-linejoin="round" fill="none" stroke="#000000" d="M 199.138 -66.138 L 149.354 -66.138 "/>
<text xml:space="preserve" transform="matrix(1 0 -0 1 0 792)" font-size="11.9552" font-family="CMMI12" font-style="italic"><tspan y="-564.7" x="303.187 308.43534 313.6717">...</tspan></text>
<path transform="matrix(1,0,0,-1,99.212,159.66699)" stroke-width=".478" stroke-linecap="round" stroke-linejoin="round" fill="none" stroke="#000000" d="M 272.787 -66.138 L 222.55 -66.138 "/>
<text xml:space="preserve" transform="matrix(1 0 -0 1 0 792)" font-size="11.9552" font-family="CMMI12" font-style="italic"><tspan y="-562.11" x="425.748">H</tspan></text>
<path transform="matrix(1,0,0,-1,99.212,159.66699)" stroke-width=".478" stroke-linecap="round" stroke-linejoin="round" fill="none" stroke="#000000" d="M 340.67 -58.542 L 323.024 -58.542 "/>
<path transform="matrix(1,0,0,-1,99.212,159.66699)" stroke-width=".478" stroke-linecap="round" stroke-linejoin="round" fill="none" stroke="#000000" d="M 323.024 -58.542 L 323.024 -73.735 "/>
<path transform="matrix(1,0,0,-1,99.212,159.66699)" stroke-width=".478" stroke-linecap="round" stroke-linejoin="round" fill="none" stroke="#000000" d="M 323.024 -73.735 L 340.67 -73.735 "/>
<path transform="matrix(1,0,0,-1,99.212,159.66699)" stroke-width=".478" stroke-linecap="round" stroke-linejoin="round" fill="none" stroke="#000000" d="M 340.67 -73.735 L 340.67 -58.542 "/>
<path transform="matrix(1,0,0,-1,99.212,159.66699)" stroke-width=".478" stroke-linecap="round" stroke-linejoin="round" fill="none" stroke="#000000" d="M 323.024 -66.138 L 272.787 -66.138 "/>
<text xml:space="preserve" transform="matrix(1 0 -0 1 0 792)" font-size="11.9552" font-family="CMSY10" font-style="italic"><tspan y="-563.245" x="450.086">&#x2022;</tspan></text>
<path transform="matrix(1,0,0,-1,99.212,159.66699)" stroke-width=".478" stroke-linecap="round" stroke-linejoin="round" fill="none" stroke="#000000" d="M 353.862 -64.815 L 353.862 -43.897 "/>
<path transform="matrix(1,0,0,-1,99.212,159.66699)" stroke-width=".478" stroke-linecap="round" stroke-linejoin="round" fill="none" stroke="#000000" d="M 352.376 -66.138 L 340.67 -66.138 "/>
<text xml:space="preserve" transform="matrix(1 0 -0 1 0 792)" font-size="11.9552" font-family="CMMI12" font-style="italic"><tspan y="-562.11" x="469.778">H</tspan></text>
<path transform="matrix(1,0,0,-1,99.212,159.66699)" stroke-width=".478" stroke-linecap="round" stroke-linejoin="round" fill="none" stroke="#000000" d="M 384.7 -58.542 L 367.054 -58.542 "/>
<path transform="matrix(1,0,0,-1,99.212,159.66699)" stroke-width=".478" stroke-linecap="round" stroke-linejoin="round" fill="none" stroke="#000000" d="M 367.054 -58.542 L 367.054 -73.735 "/>
<path transform="matrix(1,0,0,-1,99.212,159.66699)" stroke-width=".478" stroke-linecap="round" stroke-linejoin="round" fill="none" stroke="#000000" d="M 367.054 -73.735 L 384.7 -73.735 "/>
<path transform="matrix(1,0,0,-1,99.212,159.66699)" stroke-width=".478" stroke-linecap="round" stroke-linejoin="round" fill="none" stroke="#000000" d="M 384.7 -73.735 L 384.7 -58.542 "/>
<path transform="matrix(1,0,0,-1,99.212,159.66699)" stroke-width=".478" stroke-linecap="round" stroke-linejoin="round" fill="none" stroke="#000000" d="M 367.054 -66.138 L 355.348 -66.138 "/>
<path transform="matrix(1,0,0,-1,506.154,225.805)" stroke-width=".478" stroke-linecap="round" stroke-linejoin="round" fill="none" stroke="#000000" d="M -9.107 -3.769 C -4.115 1.223 3.975 1.256 9.008 -3.671 "/>
<path transform="matrix(1,0,0,-1,506.154,225.805)" stroke-width=".478" stroke-linecap="round" stroke-linejoin="round" fill="none" stroke="#000000" d="M 0 -4.682 L 5.853 5.853 "/>
<path transform="matrix(1,0,0,-1,99.212009,159.66699)" stroke-width=".478" stroke-linecap="round" stroke-linejoin="round" fill="none" stroke="#000000" d="M 417.477 -57.944 L 396.406 -57.944 "/>
<path transform="matrix(1,0,0,-1,99.212009,159.66699)" stroke-width=".478" stroke-linecap="round" stroke-linejoin="round" fill="none" stroke="#000000" d="M 396.406 -57.944 L 396.406 -74.333 "/>
<path transform="matrix(1,0,0,-1,99.212009,159.66699)" stroke-width=".478" stroke-linecap="round" stroke-linejoin="round" fill="none" stroke="#000000" d="M 396.406 -74.333 L 417.477 -74.333 "/>
<path transform="matrix(1,0,0,-1,99.212009,159.66699)" stroke-width=".478" stroke-linecap="round" stroke-linejoin="round" fill="none" stroke="#000000" d="M 417.477 -74.333 L 417.477 -57.944 "/>
<path transform="matrix(1,0,0,-1,99.212009,159.66699)" stroke-width=".478" stroke-linecap="round" stroke-linejoin="round" fill="none" stroke="#000000" d="M 396.406 -66.138 L 384.7 -66.138 "/>
<text xml:space="preserve" transform="matrix(1 0 -0 1 .0000076293949 792)" font-size="11.9552" font-family="CMR12"><tspan y="-538.739" x="72 79.63937 82.89119 88.74924 95.25287 99.8078 108.39164 114.24969 120.107738">Figure15:</tspan></text>
<text xml:space="preserve" transform="matrix(1 0 -0 1 .0000076293949 792)" font-size="11.9552" font-family="CMTI12" font-style="italic"><tspan y="-538.739" x="128.282 136.65064 142.62824 151.71419 155.30075 159.18619 164.56603 168.90576 174.88336 178.7688 182.35536 187.7352 196.82115 201.16089 206.54073 212.51833 217.3004 226.98412 232.36396 235.95052 240.29026 245.67009 251.94657 255.53313 263.1247 270.89558 274.48213 278.36756 288.0393 297.72303 302.5051 310.27598 316.25358 325.9373 329.82273 335.20259 339.98466 347.5762 353.5538 359.5314 364.91127 370.2911 376.86647 382.84407 387.62617 397.30989 401.1953 410.87904 416.85664 421.6387 426.42079 431.80064 436.5827 445.0709 448.95634 454.93394 464.0199 469.9975 474.7796 480.15946 486.43595 490.7757 496.7533 502.13316 511.506 517.48367 524.7763 528.66177 534.63937">Theiterativerodeocircuitwithaswaptestappendedtoassesstheaccuracyofthe</tspan><tspan y="-524.293" x="72 76.78208 80.66752 86.64512 90.530559 100.262088 106.239688 110.57942 115.95926 121.339099 127.316699 131.65644 137.63404 141.51947 145.10604 151.08364 157.659 167.11557 175.4842 181.4618 191.19335 195.97542 201.95302 205.83846 209.72389 215.70149 229.61736 235.59496 242.17032 247.55016 251.13672 254.72328 257.7121 268.04139 271.62794 280.7617 287.03819 291.82026 296.60237 306.9197 310.80516 321.13444 330.69859 335.48069 341.45829 346.24037 352.51686 356.8566 366.58815 370.47358 376.45118 386.1827 392.1603 397.54017 402.92 407.8575 410.8463 416.8239 427.1532 431.9353 437.31517 441.2006 448.97148 453.75358 459.13343 470.04853 473.93397 479.91157 489.6431 492.9308 496.21846 502.7938 508.7714 516.1119 520.894 524.7794 530.757 534.64248">statepreparation.Thebottomancillaisusedtomeasuretheoverlapbetweenthefinalstate</tspan><tspan y="-509.84803" x="72 77.9776 85.74848 89.63392 95.61152 105.175678 111.153278 116.53311 120.119678 124.90175 130.28159 138.35135 143.13343 148.81215 153.59423 157.47966 162.8595 176.60799 182.58559 189.16095 199.32288 203.20832 209.18592 218.75008 224.12992 230.70528 236.08512 240.42485 245.80469 255.66774 261.04759 264.63414 270.01399 275.39384 281.96919 286.75126 290.6367 296.6143 300.49974">oftheobjectsystemandtheenergyeigenstate</tspan></text>
<text xml:space="preserve" transform="matrix(1 0 -0 1 .0000076293949 792)" font-size="11.9552" font-family="CMSY10" font-style="italic"><tspan y="-509.84803" x="310.06">|</tspan></text>
<text xml:space="preserve" transform="matrix(1 0 -0 1 .0000076293949 792)" font-size="11.9552" font-family="CMMI12" font-style="italic"><tspan y="-509.84803" x="313.38">E</tspan></text>
<text xml:space="preserve" transform="matrix(1 0 -0 1 .0000076293949 792)" font-size="7.9701" font-family="CMMI8" font-style="italic"><tspan y="-508.05403" x="322.04603">j</tspan></text>
<text xml:space="preserve" transform="matrix(1 0 -0 1 .0000076293949 792)" font-size="11.9552" font-family="CMSY10" font-style="italic"><tspan y="-509.84803" x="326.428">&#x27e9;</tspan></text>
<text xml:space="preserve" transform="matrix(1 0 -0 1 .0000076293949 792)" font-size="11.9552" font-family="CMTI12" font-style="italic"><tspan y="-509.84803" x="331.077">.</tspan></text>
<text xml:space="preserve" transform="matrix(1 0 -0 1 .0000076293949 792)" font-size="11.9552" font-family="CMR12"><tspan y="-476.82405" x="89.55899 98.011318 104.514949 113.612857 118.167789 124.02583 130.52947 137.0331 142.89115 152.64659 155.8984 165.98859 171.83469 177.0352 183.53884 188.73935 193.29428 199.15233 203.70726 208.90778 219.32076 228.09587 233.95392 243.70937 246.96118 250.213 254.76793 260.62599 267.1296 270.3814 276.23948 286.6405 289.8923 298.40443 303.60493 309.78578 316.2894 322.14747 329.30863 333.86357">TherandomlygeneratedHamiltonianisequalto</tspan><tspan y="-443.73204" x="298.189">&#x02c6;</tspan></text>
<text xml:space="preserve" transform="matrix(1 0 -0 1 .0000076293949 792)" font-size="11.9552" font-family="CMSY10" font-style="italic"><tspan y="-440.71003" x="294.681">H</tspan></text>
<text xml:space="preserve" transform="matrix(1 0 -0 1 .0000076293949 792)" font-size="11.9552" font-family="CMR12"><tspan y="-440.71003" x="308.214 519.19937 523.7543 529.6123 535.47036">=(48)</tspan></text>
<text xml:space="preserve" transform="matrix(1 0 -0 1 .0000076293949 792)" font-size="11.9552" font-family="CMSY10" font-style="italic"><tspan y="-405.86503" x="138.39199">&#x2212;</tspan></text>
<text xml:space="preserve" transform="matrix(1 0 -0 1 .0000076293949 792)" font-size="11.9552" font-family="CMR12"><tspan y="-405.86503" x="147.69098">0</tspan></text>
<text xml:space="preserve" transform="matrix(1 0 -0 1 .0000076293949 792)" font-size="11.9552" font-family="CMMI12" font-style="italic"><tspan y="-405.86503" x="153.54398">.</tspan></text>
<text xml:space="preserve" transform="matrix(1 0 -0 1 .0000076293949 792)" font-size="11.9552" font-family="CMR12"><tspan y="-405.86503" x="156.79499 162.65303 168.51108 174.36913 180.22718">68388</tspan><tspan y="-408.42204" x="186.71099">&#x02c6;</tspan></text>
<text xml:space="preserve" transform="matrix(1 0 -0 1 .0000076293949 792)" font-size="11.9552" font-family="dsrom12"><tspan y="-405.86503" x="186.05998">1</tspan></text>
<text xml:space="preserve" transform="matrix(1 0 -0 1 .0000076293949 792)" font-size="11.9552" font-family="CMSY10" font-style="italic"><tspan y="-405.86503" x="195.87099">&#x2297;</tspan></text>
<text xml:space="preserve" transform="matrix(1 0 -0 1 .0000076293949 792)" font-size="11.9552" font-family="CMR12"><tspan y="-408.42204" x="208.47599">&#x02c6;</tspan></text>
<text xml:space="preserve" transform="matrix(1 0 -0 1 .0000076293949 792)" font-size="11.9552" font-family="dsrom12"><tspan y="-405.86503" x="207.82599">1</tspan></text>
<text xml:space="preserve" transform="matrix(1 0 -0 1 .0000076293949 792)" font-size="11.9552" font-family="CMR12"><tspan y="-405.86503" x="217.63599 229.3999">+0</tspan></text>
<text xml:space="preserve" transform="matrix(1 0 -0 1 .0000076293949 792)" font-size="11.9552" font-family="CMMI12" font-style="italic"><tspan y="-405.86503" x="235.25099">.</tspan></text>
<text xml:space="preserve" transform="matrix(1 0 -0 1 .0000076293949 792)" font-size="11.9552" font-family="CMR12"><tspan y="-405.86503" x="238.502 244.36005 250.2181 256.07615 261.9342">00054</tspan><tspan y="-408.42204" x="268.417">&#x02c6;</tspan></text>
<text xml:space="preserve" transform="matrix(1 0 -0 1 .0000076293949 792)" font-size="11.9552" font-family="dsrom12"><tspan y="-405.86503" x="267.767">1</tspan></text>
<text xml:space="preserve" transform="matrix(1 0 -0 1 .0000076293949 792)" font-size="11.9552" font-family="CMSY10" font-style="italic"><tspan y="-405.86503" x="277.577">&#x2297;</tspan></text>
<text xml:space="preserve" transform="matrix(1 0 -0 1 .0000076293949 792)" font-size="11.9552" font-family="CMR12"><tspan y="-405.86503" x="290.147">&#x02c6;</tspan></text>
<text xml:space="preserve" transform="matrix(1 0 -0 1 .0000076293949 792)" font-size="11.9552" font-family="CMMI12" font-style="italic"><tspan y="-405.86503" x="289.533">&#x03c3;</tspan></text>
<text xml:space="preserve" transform="matrix(1 0 -0 1 .0000076293949 792)" font-size="7.9701" font-family="CMMI8" font-style="italic"><tspan y="-404.07203" x="296.18598">x</tspan></text>
<text xml:space="preserve" transform="matrix(1 0 -0 1 .0000076293949 792)" font-size="11.9552" font-family="CMR12"><tspan y="-405.86503" x="304.10798 315.8719">+0</tspan></text>
<text xml:space="preserve" transform="matrix(1 0 -0 1 .0000076293949 792)" font-size="11.9552" font-family="CMMI12" font-style="italic"><tspan y="-405.86503" x="321.722">.</tspan></text>
<text xml:space="preserve" transform="matrix(1 0 -0 1 .0000076293949 792)" font-size="11.9552" font-family="CMR12"><tspan y="-405.86503" x="324.974 330.83207 336.69013 342.5482 348.40626">63435</tspan><tspan y="-408.42204" x="354.889">&#x02c6;</tspan></text>
<text xml:space="preserve" transform="matrix(1 0 -0 1 .0000076293949 792)" font-size="11.9552" font-family="dsrom12"><tspan y="-405.86503" x="354.239">1</tspan></text>
<text xml:space="preserve" transform="matrix(1 0 -0 1 .0000076293949 792)" font-size="11.9552" font-family="CMSY10" font-style="italic"><tspan y="-405.86503" x="364.049">&#x2297;</tspan></text>
<text xml:space="preserve" transform="matrix(1 0 -0 1 .0000076293949 792)" font-size="11.9552" font-family="CMR12"><tspan y="-405.86503" x="376.61903">&#x02c6;</tspan></text>
<text xml:space="preserve" transform="matrix(1 0 -0 1 .0000076293949 792)" font-size="11.9552" font-family="CMMI12" font-style="italic"><tspan y="-405.86503" x="376.00404">&#x03c3;</tspan></text>
<text xml:space="preserve" transform="matrix(1 0 -0 1 .0000076293949 792)" font-size="7.9701" font-family="CMMI8" font-style="italic"><tspan y="-404.07203" x="382.65803">y</tspan></text>
<text xml:space="preserve" transform="matrix(1 0 -0 1 .0000076293949 792)" font-size="11.9552" font-family="CMR12"><tspan y="-405.86503" x="390.28404 402.04795">+0</tspan></text>
<text xml:space="preserve" transform="matrix(1 0 -0 1 .0000076293949 792)" font-size="11.9552" font-family="CMMI12" font-style="italic"><tspan y="-405.86503" x="407.89805">.</tspan></text>
<text xml:space="preserve" transform="matrix(1 0 -0 1 .0000076293949 792)" font-size="11.9552" font-family="CMR12"><tspan y="-405.86503" x="411.15007 417.00813 422.86619 428.72425 434.5823">25985</tspan><tspan y="-408.42204" x="441.06507">&#x02c6;</tspan></text>
<text xml:space="preserve" transform="matrix(1 0 -0 1 .0000076293949 792)" font-size="11.9552" font-family="dsrom12"><tspan y="-405.86503" x="440.41508">1</tspan></text>
<text xml:space="preserve" transform="matrix(1 0 -0 1 .0000076293949 792)" font-size="11.9552" font-family="CMSY10" font-style="italic"><tspan y="-405.86503" x="450.22508">&#x2297;</tspan></text>
<text xml:space="preserve" transform="matrix(1 0 -0 1 .0000076293949 792)" font-size="11.9552" font-family="CMR12"><tspan y="-405.86503" x="462.79508">&#x02c6;</tspan></text>
<text xml:space="preserve" transform="matrix(1 0 -0 1 .0000076293949 792)" font-size="11.9552" font-family="CMMI12" font-style="italic"><tspan y="-405.86503" x="462.18009">&#x03c3;</tspan></text>
<text xml:space="preserve" transform="matrix(1 0 -0 1 .0000076293949 792)" font-size="7.9701" font-family="CMMI8" font-style="italic"><tspan y="-404.07203" x="468.83409">z</tspan></text>
<text xml:space="preserve" transform="matrix(1 0 -0 1 .0000076293949 792)" font-size="11.9552" font-family="CMR12"><tspan y="-379.713" x="128.86307 137.97293">+0</tspan></text>
<text xml:space="preserve" transform="matrix(1 0 -0 1 .0000076293949 792)" font-size="11.9552" font-family="CMMI12" font-style="italic"><tspan y="-379.713" x="143.82007">.</tspan></text>
<text xml:space="preserve" transform="matrix(1 0 -0 1 .0000076293949 792)" font-size="11.9552" font-family="CMR12"><tspan y="-379.713" x="147.07207 152.93012 158.78816 164.64621 170.50426 176.97202">16555&#x02c6;</tspan></text>
<text xml:space="preserve" transform="matrix(1 0 -0 1 .0000076293949 792)" font-size="11.9552" font-family="CMMI12" font-style="italic"><tspan y="-379.713" x="176.33707">&#x03c3;</tspan></text>
<text xml:space="preserve" transform="matrix(1 0 -0 1 .0000076293949 792)" font-size="7.9701" font-family="CMMI8" font-style="italic"><tspan y="-377.92" x="182.99007">x</tspan></text>
<text xml:space="preserve" transform="matrix(1 0 -0 1 .0000076293949 792)" font-size="11.9552" font-family="CMSY10" font-style="italic"><tspan y="-379.713" x="190.91207">&#x2297;</tspan></text>
<text xml:space="preserve" transform="matrix(1 0 -0 1 .0000076293949 792)" font-size="11.9552" font-family="CMR12"><tspan y="-382.27003" x="203.51807">&#x02c6;</tspan></text>
<text xml:space="preserve" transform="matrix(1 0 -0 1 .0000076293949 792)" font-size="11.9552" font-family="dsrom12"><tspan y="-379.713" x="202.86707">1</tspan></text>
<text xml:space="preserve" transform="matrix(1 0 -0 1 .0000076293949 792)" font-size="11.9552" font-family="CMSY10" font-style="italic"><tspan y="-379.713" x="212.67707">&#x2212;</tspan></text>
<text xml:space="preserve" transform="matrix(1 0 -0 1 .0000076293949 792)" font-size="11.9552" font-family="CMR12"><tspan y="-379.713" x="224.63306">0</tspan></text>
<text xml:space="preserve" transform="matrix(1 0 -0 1 .0000076293949 792)" font-size="11.9552" font-family="CMMI12" font-style="italic"><tspan y="-379.713" x="230.48606">.</tspan></text>
<text xml:space="preserve" transform="matrix(1 0 -0 1 .0000076293949 792)" font-size="11.9552" font-family="CMR12"><tspan y="-379.713" x="233.73706 239.59511 245.45316 251.3112 257.16926 263.63703">72323&#x02c6;</tspan></text>
<text xml:space="preserve" transform="matrix(1 0 -0 1 .0000076293949 792)" font-size="11.9552" font-family="CMMI12" font-style="italic"><tspan y="-379.713" x="263.00209">&#x03c3;</tspan></text>
<text xml:space="preserve" transform="matrix(1 0 -0 1 .0000076293949 792)" font-size="7.9701" font-family="CMMI8" font-style="italic"><tspan y="-377.92" x="269.65608">x</tspan></text>
<text xml:space="preserve" transform="matrix(1 0 -0 1 .0000076293949 792)" font-size="11.9552" font-family="CMSY10" font-style="italic"><tspan y="-379.713" x="277.57707">&#x2297;</tspan></text>
<text xml:space="preserve" transform="matrix(1 0 -0 1 .0000076293949 792)" font-size="11.9552" font-family="CMR12"><tspan y="-379.713" x="290.14707">&#x02c6;</tspan></text>
<text xml:space="preserve" transform="matrix(1 0 -0 1 .0000076293949 792)" font-size="11.9552" font-family="CMMI12" font-style="italic"><tspan y="-379.713" x="289.53306">&#x03c3;</tspan></text>
<text xml:space="preserve" transform="matrix(1 0 -0 1 .0000076293949 792)" font-size="7.9701" font-family="CMMI8" font-style="italic"><tspan y="-377.92" x="296.18605">x</tspan></text>
<text xml:space="preserve" transform="matrix(1 0 -0 1 .0000076293949 792)" font-size="11.9552" font-family="CMR12"><tspan y="-379.713" x="304.10804 315.87196">+0</tspan></text>
<text xml:space="preserve" transform="matrix(1 0 -0 1 .0000076293949 792)" font-size="11.9552" font-family="CMMI12" font-style="italic"><tspan y="-379.713" x="321.72206">.</tspan></text>
<text xml:space="preserve" transform="matrix(1 0 -0 1 .0000076293949 792)" font-size="11.9552" font-family="CMR12"><tspan y="-379.713" x="324.97407 330.83213 336.6902 342.54826 348.4063 354.87409">48794&#x02c6;</tspan></text>
<text xml:space="preserve" transform="matrix(1 0 -0 1 .0000076293949 792)" font-size="11.9552" font-family="CMMI12" font-style="italic"><tspan y="-379.713" x="354.23908">&#x03c3;</tspan></text>
<text xml:space="preserve" transform="matrix(1 0 -0 1 .0000076293949 792)" font-size="7.9701" font-family="CMMI8" font-style="italic"><tspan y="-377.92" x="360.8921">x</tspan></text>
<text xml:space="preserve" transform="matrix(1 0 -0 1 .0000076293949 792)" font-size="11.9552" font-family="CMSY10" font-style="italic"><tspan y="-379.713" x="368.8141">&#x2297;</tspan></text>
<text xml:space="preserve" transform="matrix(1 0 -0 1 .0000076293949 792)" font-size="11.9552" font-family="CMR12"><tspan y="-379.713" x="381.3841">&#x02c6;</tspan></text>
<text xml:space="preserve" transform="matrix(1 0 -0 1 .0000076293949 792)" font-size="11.9552" font-family="CMMI12" font-style="italic"><tspan y="-379.713" x="380.7691">&#x03c3;</tspan></text>
<text xml:space="preserve" transform="matrix(1 0 -0 1 .0000076293949 792)" font-size="7.9701" font-family="CMMI8" font-style="italic"><tspan y="-377.92" x="387.42213">y</tspan></text>
<text xml:space="preserve" transform="matrix(1 0 -0 1 .0000076293949 792)" font-size="11.9552" font-family="CMR12"><tspan y="-379.713" x="395.04914 406.81306">+0</tspan></text>
<text xml:space="preserve" transform="matrix(1 0 -0 1 .0000076293949 792)" font-size="11.9552" font-family="CMMI12" font-style="italic"><tspan y="-379.713" x="412.66316">.</tspan></text>
<text xml:space="preserve" transform="matrix(1 0 -0 1 .0000076293949 792)" font-size="11.9552" font-family="CMR12"><tspan y="-379.713" x="415.91517 421.77323 427.6313 433.48936 439.3474 445.8152">11261&#x02c6;</tspan></text>
<text xml:space="preserve" transform="matrix(1 0 -0 1 .0000076293949 792)" font-size="11.9552" font-family="CMMI12" font-style="italic"><tspan y="-379.713" x="445.18019">&#x03c3;</tspan></text>
<text xml:space="preserve" transform="matrix(1 0 -0 1 .0000076293949 792)" font-size="7.9701" font-family="CMMI8" font-style="italic"><tspan y="-377.92" x="451.8332">x</tspan></text>
<text xml:space="preserve" transform="matrix(1 0 -0 1 .0000076293949 792)" font-size="11.9552" font-family="CMSY10" font-style="italic"><tspan y="-379.713" x="459.7552">&#x2297;</tspan></text>
<text xml:space="preserve" transform="matrix(1 0 -0 1 .0000076293949 792)" font-size="11.9552" font-family="CMR12"><tspan y="-379.713" x="472.3252">&#x02c6;</tspan></text>
<text xml:space="preserve" transform="matrix(1 0 -0 1 .0000076293949 792)" font-size="11.9552" font-family="CMMI12" font-style="italic"><tspan y="-379.713" x="471.7102">&#x03c3;</tspan></text>
<text xml:space="preserve" transform="matrix(1 0 -0 1 .0000076293949 792)" font-size="7.9701" font-family="CMMI8" font-style="italic"><tspan y="-377.92" x="478.3642">z</tspan></text>
<text xml:space="preserve" transform="matrix(1 0 -0 1 .0000076293949 792)" font-size="11.9552" font-family="CMR12"><tspan y="-353.561" x="129.25919 138.36905">+0</tspan></text>
<text xml:space="preserve" transform="matrix(1 0 -0 1 .0000076293949 792)" font-size="11.9552" font-family="CMMI12" font-style="italic"><tspan y="-353.561" x="144.2172">.</tspan></text>
<text xml:space="preserve" transform="matrix(1 0 -0 1 .0000076293949 792)" font-size="11.9552" font-family="CMR12"><tspan y="-353.561" x="147.4682 153.32625 159.1843 165.04235 170.90039 177.36815">06378&#x02c6;</tspan></text>
<text xml:space="preserve" transform="matrix(1 0 -0 1 .0000076293949 792)" font-size="11.9552" font-family="CMMI12" font-style="italic"><tspan y="-353.561" x="176.7332">&#x03c3;</tspan></text>
<text xml:space="preserve" transform="matrix(1 0 -0 1 .0000076293949 792)" font-size="7.9701" font-family="CMMI8" font-style="italic"><tspan y="-351.768" x="183.3872">y</tspan></text>
<text xml:space="preserve" transform="matrix(1 0 -0 1 .0000076293949 792)" font-size="11.9552" font-family="CMSY10" font-style="italic"><tspan y="-353.561" x="191.01322">&#x2297;</tspan></text>
<text xml:space="preserve" transform="matrix(1 0 -0 1 .0000076293949 792)" font-size="11.9552" font-family="CMR12"><tspan y="-356.118" x="203.61922">&#x02c6;</tspan></text>
<text xml:space="preserve" transform="matrix(1 0 -0 1 .0000076293949 792)" font-size="11.9552" font-family="dsrom12"><tspan y="-353.561" x="202.96923">1</tspan></text>
<text xml:space="preserve" transform="matrix(1 0 -0 1 .0000076293949 792)" font-size="11.9552" font-family="CMSY10" font-style="italic"><tspan y="-353.561" x="212.77922">&#x2212;</tspan></text>
<text xml:space="preserve" transform="matrix(1 0 -0 1 .0000076293949 792)" font-size="11.9552" font-family="CMR12"><tspan y="-353.561" x="224.73423">0</tspan></text>
<text xml:space="preserve" transform="matrix(1 0 -0 1 .0000076293949 792)" font-size="11.9552" font-family="CMMI12" font-style="italic"><tspan y="-353.561" x="230.58722">.</tspan></text>
<text xml:space="preserve" transform="matrix(1 0 -0 1 .0000076293949 792)" font-size="11.9552" font-family="CMR12"><tspan y="-353.561" x="233.83922 239.69727 245.55532 251.41336 257.27143 263.7392">51002&#x02c6;</tspan></text>
<text xml:space="preserve" transform="matrix(1 0 -0 1 .0000076293949 792)" font-size="11.9552" font-family="CMMI12" font-style="italic"><tspan y="-353.561" x="263.10423">&#x03c3;</tspan></text>
<text xml:space="preserve" transform="matrix(1 0 -0 1 .0000076293949 792)" font-size="7.9701" font-family="CMMI8" font-style="italic"><tspan y="-351.768" x="269.7572">y</tspan></text>
<text xml:space="preserve" transform="matrix(1 0 -0 1 .0000076293949 792)" font-size="11.9552" font-family="CMSY10" font-style="italic"><tspan y="-353.561" x="277.38423">&#x2297;</tspan></text>
<text xml:space="preserve" transform="matrix(1 0 -0 1 .0000076293949 792)" font-size="11.9552" font-family="CMR12"><tspan y="-353.561" x="289.95323">&#x02c6;</tspan></text>
<text xml:space="preserve" transform="matrix(1 0 -0 1 .0000076293949 792)" font-size="11.9552" font-family="CMMI12" font-style="italic"><tspan y="-353.561" x="289.3392">&#x03c3;</tspan></text>
<text xml:space="preserve" transform="matrix(1 0 -0 1 .0000076293949 792)" font-size="7.9701" font-family="CMMI8" font-style="italic"><tspan y="-351.768" x="295.9922">x</tspan></text>
<text xml:space="preserve" transform="matrix(1 0 -0 1 .0000076293949 792)" font-size="11.9552" font-family="CMSY10" font-style="italic"><tspan y="-353.561" x="303.91419">&#x2212;</tspan></text>
<text xml:space="preserve" transform="matrix(1 0 -0 1 .0000076293949 792)" font-size="11.9552" font-family="CMR12"><tspan y="-353.561" x="315.86918">0</tspan></text>
<text xml:space="preserve" transform="matrix(1 0 -0 1 .0000076293949 792)" font-size="11.9552" font-family="CMMI12" font-style="italic"><tspan y="-353.561" x="321.72218">.</tspan></text>
<text xml:space="preserve" transform="matrix(1 0 -0 1 .0000076293949 792)" font-size="11.9552" font-family="CMR12"><tspan y="-353.561" x="324.97419 330.83226 336.6903 342.54838 348.40644 354.8742">78572&#x02c6;</tspan></text>
<text xml:space="preserve" transform="matrix(1 0 -0 1 .0000076293949 792)" font-size="11.9552" font-family="CMMI12" font-style="italic"><tspan y="-353.561" x="354.2392">&#x03c3;</tspan></text>
<text xml:space="preserve" transform="matrix(1 0 -0 1 .0000076293949 792)" font-size="7.9701" font-family="CMMI8" font-style="italic"><tspan y="-351.768" x="360.8922">y</tspan></text>
<text xml:space="preserve" transform="matrix(1 0 -0 1 .0000076293949 792)" font-size="11.9552" font-family="CMSY10" font-style="italic"><tspan y="-353.561" x="368.51924">&#x2297;</tspan></text>
<text xml:space="preserve" transform="matrix(1 0 -0 1 .0000076293949 792)" font-size="11.9552" font-family="CMR12"><tspan y="-353.561" x="381.08824">&#x02c6;</tspan></text>
<text xml:space="preserve" transform="matrix(1 0 -0 1 .0000076293949 792)" font-size="11.9552" font-family="CMMI12" font-style="italic"><tspan y="-353.561" x="380.4742">&#x03c3;</tspan></text>
<text xml:space="preserve" transform="matrix(1 0 -0 1 .0000076293949 792)" font-size="7.9701" font-family="CMMI8" font-style="italic"><tspan y="-351.768" x="387.1272">y</tspan></text>
<text xml:space="preserve" transform="matrix(1 0 -0 1 .0000076293949 792)" font-size="11.9552" font-family="CMSY10" font-style="italic"><tspan y="-353.561" x="394.7542">&#x2212;</tspan></text>
<text xml:space="preserve" transform="matrix(1 0 -0 1 .0000076293949 792)" font-size="11.9552" font-family="CMR12"><tspan y="-353.561" x="406.7092">0</tspan></text>
<text xml:space="preserve" transform="matrix(1 0 -0 1 .0000076293949 792)" font-size="11.9552" font-family="CMMI12" font-style="italic"><tspan y="-353.561" x="412.5622">.</tspan></text>
<text xml:space="preserve" transform="matrix(1 0 -0 1 .0000076293949 792)" font-size="11.9552" font-family="CMR12"><tspan y="-353.561" x="415.8142 421.67228 427.53034 433.3884 439.24647 445.71424">64711&#x02c6;</tspan></text>
<text xml:space="preserve" transform="matrix(1 0 -0 1 .0000076293949 792)" font-size="11.9552" font-family="CMMI12" font-style="italic"><tspan y="-353.561" x="445.07823">&#x03c3;</tspan></text>
<text xml:space="preserve" transform="matrix(1 0 -0 1 .0000076293949 792)" font-size="7.9701" font-family="CMMI8" font-style="italic"><tspan y="-351.768" x="451.7322">y</tspan></text>
<text xml:space="preserve" transform="matrix(1 0 -0 1 .0000076293949 792)" font-size="11.9552" font-family="CMSY10" font-style="italic"><tspan y="-353.561" x="459.35823">&#x2297;</tspan></text>
<text xml:space="preserve" transform="matrix(1 0 -0 1 .0000076293949 792)" font-size="11.9552" font-family="CMR12"><tspan y="-353.561" x="471.92823">&#x02c6;</tspan></text>
<text xml:space="preserve" transform="matrix(1 0 -0 1 .0000076293949 792)" font-size="11.9552" font-family="CMMI12" font-style="italic"><tspan y="-353.561" x="471.3142">&#x03c3;</tspan></text>
<text xml:space="preserve" transform="matrix(1 0 -0 1 .0000076293949 792)" font-size="7.9701" font-family="CMMI8" font-style="italic"><tspan y="-351.768" x="477.96723">z</tspan></text>
<text xml:space="preserve" transform="matrix(1 0 -0 1 .0000076293949 792)" font-size="11.9552" font-family="CMSY10" font-style="italic"><tspan y="-327.409" x="127.92923">&#x2212;</tspan></text>
<text xml:space="preserve" transform="matrix(1 0 -0 1 .0000076293949 792)" font-size="11.9552" font-family="CMR12"><tspan y="-327.409" x="137.22724">0</tspan></text>
<text xml:space="preserve" transform="matrix(1 0 -0 1 .0000076293949 792)" font-size="11.9552" font-family="CMMI12" font-style="italic"><tspan y="-327.409" x="143.08023">.</tspan></text>
<text xml:space="preserve" transform="matrix(1 0 -0 1 .0000076293949 792)" font-size="11.9552" font-family="CMR12"><tspan y="-327.409" x="146.33223 152.19028 158.04833 163.90637 169.76442 176.23218">29152&#x02c6;</tspan></text>
<text xml:space="preserve" transform="matrix(1 0 -0 1 .0000076293949 792)" font-size="11.9552" font-family="CMMI12" font-style="italic"><tspan y="-327.409" x="175.59723">&#x03c3;</tspan></text>
<text xml:space="preserve" transform="matrix(1 0 -0 1 .0000076293949 792)" font-size="7.9701" font-family="CMMI8" font-style="italic"><tspan y="-325.616" x="182.25023">z</tspan></text>
<text xml:space="preserve" transform="matrix(1 0 -0 1 .0000076293949 792)" font-size="11.9552" font-family="CMSY10" font-style="italic"><tspan y="-327.409" x="189.68123">&#x2297;</tspan></text>
<text xml:space="preserve" transform="matrix(1 0 -0 1 .0000076293949 792)" font-size="11.9552" font-family="CMR12"><tspan y="-329.966" x="202.28623">&#x02c6;</tspan></text>
<text xml:space="preserve" transform="matrix(1 0 -0 1 .0000076293949 792)" font-size="11.9552" font-family="dsrom12"><tspan y="-327.409" x="201.63623">1</tspan></text>
<text xml:space="preserve" transform="matrix(1 0 -0 1 .0000076293949 792)" font-size="11.9552" font-family="CMSY10" font-style="italic"><tspan y="-327.409" x="211.44623">&#x2212;</tspan></text>
<text xml:space="preserve" transform="matrix(1 0 -0 1 .0000076293949 792)" font-size="11.9552" font-family="CMR12"><tspan y="-327.409" x="223.40123">0</tspan></text>
<text xml:space="preserve" transform="matrix(1 0 -0 1 .0000076293949 792)" font-size="11.9552" font-family="CMMI12" font-style="italic"><tspan y="-327.409" x="229.25423">.</tspan></text>
<text xml:space="preserve" transform="matrix(1 0 -0 1 .0000076293949 792)" font-size="11.9552" font-family="CMR12"><tspan y="-327.409" x="232.50623 238.36428 244.22232 250.08037 255.93842 262.4062">89286&#x02c6;</tspan></text>
<text xml:space="preserve" transform="matrix(1 0 -0 1 .0000076293949 792)" font-size="11.9552" font-family="CMMI12" font-style="italic"><tspan y="-327.409" x="261.77125">&#x03c3;</tspan></text>
<text xml:space="preserve" transform="matrix(1 0 -0 1 .0000076293949 792)" font-size="7.9701" font-family="CMMI8" font-style="italic"><tspan y="-325.616" x="268.42427">z</tspan></text>
<text xml:space="preserve" transform="matrix(1 0 -0 1 .0000076293949 792)" font-size="11.9552" font-family="CMSY10" font-style="italic"><tspan y="-327.409" x="275.85527">&#x2297;</tspan></text>
<text xml:space="preserve" transform="matrix(1 0 -0 1 .0000076293949 792)" font-size="11.9552" font-family="CMR12"><tspan y="-327.409" x="288.42527">&#x02c6;</tspan></text>
<text xml:space="preserve" transform="matrix(1 0 -0 1 .0000076293949 792)" font-size="11.9552" font-family="CMMI12" font-style="italic"><tspan y="-327.409" x="287.81028">&#x03c3;</tspan></text>
<text xml:space="preserve" transform="matrix(1 0 -0 1 .0000076293949 792)" font-size="7.9701" font-family="CMMI8" font-style="italic"><tspan y="-325.616" x="294.46327">x</tspan></text>
<text xml:space="preserve" transform="matrix(1 0 -0 1 .0000076293949 792)" font-size="11.9552" font-family="CMSY10" font-style="italic"><tspan y="-327.409" x="302.38526">&#x2212;</tspan></text>
<text xml:space="preserve" transform="matrix(1 0 -0 1 .0000076293949 792)" font-size="11.9552" font-family="CMR12"><tspan y="-327.409" x="314.34025">0</tspan></text>
<text xml:space="preserve" transform="matrix(1 0 -0 1 .0000076293949 792)" font-size="11.9552" font-family="CMMI12" font-style="italic"><tspan y="-327.409" x="320.19325">.</tspan></text>
<text xml:space="preserve" transform="matrix(1 0 -0 1 .0000076293949 792)" font-size="11.9552" font-family="CMR12"><tspan y="-327.409" x="323.44526 329.3033 335.16139 341.01945 346.8775 353.34529">32324&#x02c6;</tspan></text>
<text xml:space="preserve" transform="matrix(1 0 -0 1 .0000076293949 792)" font-size="11.9552" font-family="CMMI12" font-style="italic"><tspan y="-327.409" x="352.71028">&#x03c3;</tspan></text>
<text xml:space="preserve" transform="matrix(1 0 -0 1 .0000076293949 792)" font-size="7.9701" font-family="CMMI8" font-style="italic"><tspan y="-325.616" x="359.36329">z</tspan></text>
<text xml:space="preserve" transform="matrix(1 0 -0 1 .0000076293949 792)" font-size="11.9552" font-family="CMSY10" font-style="italic"><tspan y="-327.409" x="366.79429">&#x2297;</tspan></text>
<text xml:space="preserve" transform="matrix(1 0 -0 1 .0000076293949 792)" font-size="11.9552" font-family="CMR12"><tspan y="-327.409" x="379.3643">&#x02c6;</tspan></text>
<text xml:space="preserve" transform="matrix(1 0 -0 1 .0000076293949 792)" font-size="11.9552" font-family="CMMI12" font-style="italic"><tspan y="-327.409" x="378.7493">&#x03c3;</tspan></text>
<text xml:space="preserve" transform="matrix(1 0 -0 1 .0000076293949 792)" font-size="7.9701" font-family="CMMI8" font-style="italic"><tspan y="-325.616" x="385.40229">y</tspan></text>
<text xml:space="preserve" transform="matrix(1 0 -0 1 .0000076293949 792)" font-size="11.9552" font-family="CMSY10" font-style="italic"><tspan y="-327.409" x="393.0293">&#x2212;</tspan></text>
<text xml:space="preserve" transform="matrix(1 0 -0 1 .0000076293949 792)" font-size="11.9552" font-family="CMR12"><tspan y="-327.409" x="404.98429">0</tspan></text>
<text xml:space="preserve" transform="matrix(1 0 -0 1 .0000076293949 792)" font-size="11.9552" font-family="CMMI12" font-style="italic"><tspan y="-327.409" x="410.83729">.</tspan></text>
<text xml:space="preserve" transform="matrix(1 0 -0 1 .0000076293949 792)" font-size="11.9552" font-family="CMR12"><tspan y="-327.409" x="414.0893 419.94737 425.80543 431.66349 437.52156 443.98933">95432&#x02c6;</tspan></text>
<text xml:space="preserve" transform="matrix(1 0 -0 1 .0000076293949 792)" font-size="11.9552" font-family="CMMI12" font-style="italic"><tspan y="-327.409" x="443.3543">&#x03c3;</tspan></text>
<text xml:space="preserve" transform="matrix(1 0 -0 1 .0000076293949 792)" font-size="7.9701" font-family="CMMI8" font-style="italic"><tspan y="-325.616" x="450.00733">z</tspan></text>
<text xml:space="preserve" transform="matrix(1 0 -0 1 .0000076293949 792)" font-size="11.9552" font-family="CMSY10" font-style="italic"><tspan y="-327.409" x="457.43733">&#x2297;</tspan></text>
<text xml:space="preserve" transform="matrix(1 0 -0 1 .0000076293949 792)" font-size="11.9552" font-family="CMR12"><tspan y="-327.409" x="470.00733">&#x02c6;</tspan></text>
<text xml:space="preserve" transform="matrix(1 0 -0 1 .0000076293949 792)" font-size="11.9552" font-family="CMMI12" font-style="italic"><tspan y="-327.409" x="469.3933">&#x03c3;</tspan></text>
<text xml:space="preserve" transform="matrix(1 0 -0 1 .0000076293949 792)" font-size="7.9701" font-family="CMMI8" font-style="italic"><tspan y="-325.616" x="476.04634">z</tspan></text>
<text xml:space="preserve" transform="matrix(1 0 -0 1 .0000076293949 792)" font-size="11.9552" font-family="CMMI12" font-style="italic"><tspan y="-327.409" x="480.8203">.</tspan></text>
<text xml:space="preserve" transform="matrix(1 0 -0 1 .0000076293949 792)" font-size="11.9552" font-family="CMR12"><tspan y="-296.575" x="89.559329 98.01165 104.51528 114.67721 121.18084 127.68447 133.54253 138.15723 148.31916 153.51967 158.13437 162.6893 165.94112 175.69657 181.55461 186.10955 189.36136 195.2194 201.72304 210.19928 214.81398 221.31761 226.85288 235.3052 246.77025 250.02207 261.4871 264.73295 267.99073 273.8488 280.35243 284.8954 295.05729 300.91535 306.7734 315.2616 321.76524 326.37995 331.58045 343.04548 353.86494 358.41987 364.6007 371.10435 376.30485 387.1243 392.3248 398.50566 403.70616 406.95796 412.15846 416.77317 425.2494 431.10746 441.9269 446.48185 452.3399 456.89485 462.7529 467.9534 477.46974 482.67024 489.17387 494.37437 498.9293 504.7754 515.91769 522.42129 525.6731 532.1767 536.7914">Thephaseestimation,showninfigure16,used8rodeocycles,50targetenergybins,</tspan><tspan y="-278.518" x="72.00033 77.858379 83.71642 93.66315 98.86366 104.39892 110.256969 113.50878 120.01241 125.87046 130.42539 133.6772 139.53525 150.12757 154.6825 159.88301 166.72139 171.9219 177.77996 182.33489 191.03827 194.61287 200.47092 209.12648 214.327 220.18505 225.05081 235.65508 240.85559 247.35923 252.55974 257.1147 262.97276 273.24229 279.7459 282.9977 289.50135 296.9016 302.75968 309.2633 319.85563 325.71369 331.57176 337.4298 347.38853 352.00325 358.50688 364.36494 368.91987 377.62327 381.19789 387.05595 395.71153 400.91203 406.77009 411.6478 422.2401 427.4406 432.9759 438.83396 442.08576 448.5894 454.44746 459.00239 462.25419 468.11225 478.70457 483.2595 488.46 495.2864 500.4869 506.34498 510.8999 519.93807 528.3904 534.894">100evaluationrepeatsforeachenergybin,and2048shotsforeachevaluationrepeat.The</tspan><tspan y="-260.46" x="72.00033 78.82675 84.6848 89.29951 92.55132 97.106258 100.35807 106.21612 112.71975 120.203708 126.06175 132.51757 137.0725 143.57613 151.64589 158.4723 163.67282 169.53087 175.7117 183.19565 186.44747 195.82035 200.37528 206.8789">positionsofthepeaksinthe</tspan></text>
<text xml:space="preserve" transform="matrix(1 0 -0 1 .0000076293949 792)" font-size="11.9552" font-family="CMMI12" font-style="italic"><tspan y="-260.46" x="214.94434">P</tspan></text>
<text xml:space="preserve" transform="matrix(1 0 -0 1 .0000076293949 792)" font-size="7.9701" font-family="CMMI8" font-style="italic"><tspan y="-258.667" x="222.48934">n</tspan></text>
<text xml:space="preserve" transform="matrix(1 0 -0 1 .0000076293949 792)" font-size="11.9552" font-family="CMR12"><tspan y="-260.46" x="230.99834 240.75379 245.9543 251.81235 256.42707 262.9307 267.48564 272.68614 282.44157 287.64207 293.8229 298.37785 305.86183 311.71989 316.2748 324.34458 329.54508 335.40315 338.65495 343.85545 350.35908 353.61088 359.46894 364.02388 369.22438 378.59727 384.7781 393.82823 400.33186 405.53236 408.78416 416.7463 422.92716 426.17897">measurementsarecalculatedbySciPy&#x2019;s</tspan></text>
<text xml:space="preserve" transform="matrix(1 0 -0 1 .0000076293949 792)" font-size="11.9552" font-family="CMTT12"><tspan y="-260.46" x="433.66236 439.81929 445.9762 452.13313 458.29005 464.44697 470.60389 476.7608 482.91773 489.07466">find_peaks</tspan></text>
<text xml:space="preserve" transform="matrix(1 0 -0 1 .0000076293949 792)" font-size="11.9552" font-family="CMR12"><tspan y="-260.46" x="498.05436 501.62898 508.1326 514.6362 519.83676 524.39169 527.6435 533.5015">function</tspan><tspan y="-242.40299" x="72.00037 75.25218 81.11023 86.96828 90.22009">[14].</tspan><tspan y="-224.34598" x="89.559368 93.77955 104.08493 110.58856 115.14349 121.00154 126.20206 130.75699 134.0088 139.20932 144.40984 151.47536 156.03029 162.53392 165.78574 174.2022 180.70583 187.20946 193.0675 197.6822 206.68448 211.885 216.4997 221.05463 224.30644 234.06189 239.91994 244.47487 247.72669 253.58473 263.8901 268.44505 273.64555 278.26026 284.7639 288.0157 296.3604 304.48997 310.34803 316.85166 320.10346 330.40885 337.23527 346.23753 349.81214 356.31578 360.93049 369.28718 375.14524 381.64888 390.65113 396.5092 403.8736 413.62904 419.4871 425.66795 435.65055 440.20549 446.38633 452.88996 458.09046 467.75028 472.365 477.5655 483.42356 489.9272 498.34367 501.91828 508.09913 513.2996 519.8032 524.4179 527.66976 534.17337">Inpractice,thisphaseestimationresultwouldbejustoneofmanyrodeoscansfocusing</tspan><tspan y="-206.28897" x="72.00037 75.25218 85.30651 91.16456 101.20693 110.61568 116.473728 121.67424 126.22917 130.12657 136.6302 143.13384 149.31467 155.8183 161.3416 169.79393 179.84825 185.04877 191.5524 196.75292 201.30785 207.1659 216.89742 222.09793 225.3378 231.19585 236.39636 242.57721 248.11246 253.9705 257.22233 263.72596 268.92646 277.25923 286.03434 291.5696 299.69917 304.89967 310.74577 315.94627 320.5012 327.37544 331.99015 335.24195 341.74559 346.94609 355.69728 363.81486 372.56605 378.7469 385.25053 390.7858 402.77687 407.3318 413.83543 422.5866 427.7871 431.0389 436.89698 442.09748 448.27833 453.80165 459.6597 462.9115 469.41514 474.61564 481.48988 489.61943 498.35865 503.55915 509.4172 519.47158 524.08627 530.2671 533.5189">inonayet-unknownenergyeigenvalue.However,sinceweknowtheeigenvalue,wecanskip</tspan><tspan y="-188.23097" x="72.00037 76.5553 85.5217 90.07663 95.277149 99.89185 104.446788 107.6986 114.19028 123.15668 127.71161 134.21524 142.52411 147.13881 151.69374 157.55179 162.10672 170.40363 176.90726 181.46219 186.6627 193.16634 199.02439 203.57932 209.43737 213.9923 217.24411 223.10216 232.71414 238.57219 246.22351 250.77845 257.28208 265.5909 268.8427 274.36604 282.49559 287.69609 292.3108 296.86573 300.76313 304.01493 309.21543 315.0735 320.274 326.6222 331.8227 335.0745 340.93257 346.13307 352.3139 357.84919 363.70726 366.95906 373.46269 378.66319 385.17875 393.63108 396.88288 401.4378 411.03785 420.00425 423.25605 429.1141 433.66905 439.5271 447.824 452.70173 459.20536 465.06343 468.31523 473.51573 481.82456 487.68263 494.35365 498.90858 505.4122 513.72109 519.2444 525.1024 528.35427 534.85787">totestingthestatepreparationatthelowest-leveleigenvalue,withalargechoiceofthevalue</tspan><tspan y="-170.17398" x="72.00037 75.574977 81.43302">for</tspan></text>
<text xml:space="preserve" transform="matrix(1 0 -0 1 .0000076293949 792)" font-size="11.9552" font-family="CMMI12" font-style="italic"><tspan y="-170.17398" x="89.88437">&#x03c3;</tspan></text>
<text xml:space="preserve" transform="matrix(1 0 -0 1 .0000076293949 792)" font-size="11.9552" font-family="CMR12"><tspan y="-170.17398" x="96.96737 104.11658 109.974628 118.4389 124.29695 130.155 136.01305 141.8711 147.72914">,at10000.</tspan><tspan y="-152.11698" x="89.55937 100.60598 108.6877 113.888217 119.74626 129.11914 133.73384 138.93436 147.01609 150.2679 159.65274 162.89858 166.15637 172.01442 178.5061 183.06104 191.14276 197.00081 205.74007 210.295 216.79863 222.64473 230.08087 235.93892 239.19074 243.74567 250.2493 256.10737 262.611 268.46907 277.84196 282.39689 288.9005 296.9822 301.59693 308.10057 314.6042 321.10783 325.66276 330.86326 335.47798 340.09269 343.34449 349.20256 358.57545 364.4335 370.8893 375.44425 381.94789 390.01765 394.57258 399.77308 404.3878 407.6396 414.14323 420.64686 426.5049 432.6379 437.8384 441.0902 446.94828 452.14878 458.6524 463.26713 467.82206 473.6801 478.23506 483.43556 490.91954 494.17134 501.66725 506.22218 511.42268 517.9263 524.4299 527.6817 534.1853">Wecanseeinfigure17thatalthoughthesuppressionoftheresidualeigenstatesistending</tspan><tspan y="-134.05898" x="72.000377 76.555309 82.09056 90.22009 96.07814 100.62112 107.12475 116.24657 123.07299 128.2735 131.52532 138.02895 148.3941 151.64592 157.50397 163.36202 169.22006 173.775 177.02681 181.58174 188.08538 197.84082 201.09264 210.7883 214.04012 225.05086 229.60579 236.10942 245.80509 251.98593 258.48957 267.9222 274.74864 279.94914 289.01118 294.85728 302.939 307.49394 313.67478 320.1784 325.3789 335.74409 340.94459 347.12544 352.32594 355.57774 360.77824 369.8881 373.4627 379.32078 388.3828 392.93775 399.44139 409.13703 415.64067 421.49873 428.00236 431.89976 438.40339 444.26145 447.51325 452.12797 462.81593 467.43064 470.68244 480.11509 486.6187 489.8705 495.72859 500.2835 503.5353 509.39338 515.885 523.7994 528.3543 534.8579">towardsbeinglogarithmicinthenumberofrodeocyclesforthenon-noisysimulation,the</tspan><tspan y="-116.001979" x="72.000377 77.20089 81.75582 86.31075 92.1688 96.72373 104.86523 108.11704 118.14746 122.70239 129.20603 137.92137 142.14156 150.42652 164.67711 177.31375 186.08887 191.94692 195.19873 199.75366 205.61171 212.11534 218.89394 223.50864 226.76045 236.19312 242.69675 245.94857 251.80661 256.34959 259.60139 265.45945 275.48988 280.0448 286.54844 293.05207 301.19358 307.05165 311.60658 320.33387 323.58567 329.44374 333.99867 339.85673 348.584 353.78453 360.28816 366.1462 372.64985 378.5079 388.52638 393.0813 399.58494 405.443 413.52473 418.07966 424.58329 427.83509 435.9766 442.803 448.0035 454.50715 460.04243 466.22328 469.47508 475.33314 481.83677 489.9185 493.1703 501.29985 505.91456 512.75289 518.6109 521.86276 525.11459 530.31509 536.81869">errorsintheIBMQNairobisimulationrunsarelargeenoughthatthisbehaviourisspoiled.</tspan><tspan y="-97.94498" x="72.000377 78.659427 84.51747 89.71799 94.27292 100.13097 104.6859 113.44906 118.00399 124.50762 130.36568 139.05712 144.25763 150.11568 156.61931 159.87113 170.51126 177.0149 182.55016 188.4082 197.74523 202.94574 208.80379 215.30742 219.92212 225.12264 235.77472 240.32965 246.83329 250.0851 258.8363 262.0881 270.83934 275.39427 281.8979 291.24687 297.7505 302.951 309.45463 314.00956 324.6497 330.50776 338.23085 342.7738 349.27745 358.6264 363.8269 367.0787 371.63365 376.83415 383.33778 386.58958 395.281 402.10743 407.30793 412.50843 418.3665 428.12193 431.37373 437.87736 447.88389 452.4388 458.61967 468.61424 471.86604 477.7241 482.27903 488.1371 493.3376 500.78569 506.64375 513.14736 523.7994 528.3543 534.8579">Factorsthatcouldhavecausedthisisthedepthofthecircuitbecomingtoolarge,andthe</tspan><tspan y="-79.88798" x="72.000377 78.504009 83.05894 88.25945 94.763088 100.62113 105.17606 111.03411 115.58904 118.84086 124.698909 135.09993 140.95798 148.44193 152.98491 159.48854 168.5984 173.79892 177.05074 182.90879 188.1093 194.61293 199.22763 203.78256 209.64061 214.19554 223.29346 226.86806 232.7261 241.17844 245.73337 252.237 261.34687 265.96159 274.07917 279.93724 290.35023 294.90516 300.10566 304.72038 313.1727 319.9991 325.19963 328.45143 334.95506 344.72248 347.97428 354.4779 360.33598 365.53648 370.73698 377.2406 381.79554 387.64164 392.19657 397.39707">preparationoftheeigenstatefortheswaptestbeinginaccurate.</tspan></text>
<text xml:space="preserve" transform="matrix(1 0 -0 1 .0000076293949 792)" font-size="11.9552" font-family="CMR12"><tspan y="-42.111978" x="300.14738 306.00544">19</tspan></text>
</g>
</svg>
